<svg xmlns="http://www.w3.org/2000/svg" xmlns:xlink="http://www.w3.org/1999/xlink" contentStyleType="text/css" data-diagram-type="SEQUENCE" height="813px" preserveAspectRatio="none" style="width:2122px;height:813px;background:#FFFFFF;" version="1.1" viewBox="0 0 2122 813" width="2122px" zoomAndPan="magnify"><title>&#1055;&#1086;&#1089;&#1083;&#1077;&#1076;&#1086;&#1074;&#1072;&#1090;&#1077;&#1083;&#1100;&#1085;&#1086;&#1089;&#1090;&#1100; &#1076;&#1077;&#1081;&#1089;&#1090;&#1074;&#1080;&#1081; &#1087;&#1088;&#1080; &#1086;&#1090;&#1087;&#1088;&#1072;&#1074;&#1082;&#1077; &#1082;&#1086;&#1084;&#1072;&#1085;&#1076;&#1099; &#1087;&#1086;&#1083;&#1100;&#1079;&#1086;&#1074;&#1072;&#1090;&#1077;&#1083;&#1077;&#1084; &#1091;&#1089;&#1090;&#1088;&#1086;&#1081;&#1089;&#1090;&#1074;&#1091;</title><defs/><g><text fill="#000000" font-family="sans-serif" font-size="14" font-weight="bold" lengthAdjust="spacing" textLength="665.1641" x="724.6489" y="27.9951">&#1055;&#1086;&#1089;&#1083;&#1077;&#1076;&#1086;&#1074;&#1072;&#1090;&#1077;&#1083;&#1100;&#1085;&#1086;&#1089;&#1090;&#1100; &#1076;&#1077;&#1081;&#1089;&#1090;&#1074;&#1080;&#1081; &#1087;&#1088;&#1080; &#1086;&#1090;&#1087;&#1088;&#1072;&#1074;&#1082;&#1077; &#1082;&#1086;&#1084;&#1072;&#1085;&#1076;&#1099; &#1087;&#1086;&#1083;&#1100;&#1079;&#1086;&#1074;&#1072;&#1090;&#1077;&#1083;&#1077;&#1084; &#1091;&#1089;&#1090;&#1088;&#1086;&#1081;&#1089;&#1090;&#1074;&#1091;</text><g><title>............</title><rect fill="#000000" fill-opacity="0.00000" height="614.3906" width="8" x="55.5498" y="118.5938"/><line style="stroke:#181818;stroke-width:0.5;stroke-dasharray:5,5;" x1="59" x2="59" y1="118.5938" y2="732.9844"/></g><g><title>SPA . Mobile App</title><rect fill="#000000" fill-opacity="0.00000" height="614.3906" width="8" x="443.0293" y="118.5938"/><line style="stroke:#181818;stroke-width:0.5;stroke-dasharray:5,5;" x1="446.9053" x2="446.9053" y1="118.5938" y2="732.9844"/></g><g><title>API Gateway</title><rect fill="#000000" fill-opacity="0.00000" height="614.3906" width="8" x="734.0752" y="118.5938"/><line style="stroke:#181818;stroke-width:0.5;stroke-dasharray:5,5;" x1="737.8535" x2="737.8535" y1="118.5938" y2="732.9844"/></g><g><title>BFF</title><rect fill="#000000" fill-opacity="0.00000" height="614.3906" width="8" x="815.1519" y="118.5938"/><line style="stroke:#181818;stroke-width:0.5;stroke-dasharray:5,5;" x1="818.2969" x2="818.2969" y1="118.5938" y2="732.9844"/></g><g><title>Devices Service</title><rect fill="#000000" fill-opacity="0.00000" height="614.3906" width="8" x="1155.8618" y="118.5938"/><line style="stroke:#181818;stroke-width:0.5;stroke-dasharray:5,5;" x1="1159.1797" x2="1159.1797" y1="118.5938" y2="732.9844"/></g><g><title>Devices DB</title><rect fill="#000000" fill-opacity="0.00000" height="614.3906" width="8" x="1310.3379" y="118.5938"/><line style="stroke:#181818;stroke-width:0.5;stroke-dasharray:5,5;" x1="1314.334" x2="1314.334" y1="118.5938" y2="732.9844"/></g><g><title>Databus .Kafka.</title><rect fill="#000000" fill-opacity="0.00000" height="614.3906" width="8" x="1453.522" y="118.5938"/><line style="stroke:#181818;stroke-width:0.5;stroke-dasharray:5,5;" x1="1456.9067" x2="1456.9067" y1="118.5938" y2="732.9844"/></g><g><title>...... ...... .Clickhouse.</title><rect fill="#000000" fill-opacity="0.00000" height="614.3906" width="8" x="1641.8022" y="118.5938"/><line style="stroke:#181818;stroke-width:0.5;stroke-dasharray:5,5;" x1="1645.1372" x2="1645.1372" y1="118.5938" y2="732.9844"/></g><g><title>Zigbee Adapter</title><rect fill="#000000" fill-opacity="0.00000" height="614.3906" width="8" x="1830.5786" y="118.5938"/><line style="stroke:#181818;stroke-width:0.5;stroke-dasharray:5,5;" x1="1834.2192" x2="1834.2192" y1="118.5938" y2="732.9844"/></g><g><title>.......... Zigbee</title><rect fill="#000000" fill-opacity="0.00000" height="614.3906" width="8" x="2035.1948" y="118.5938"/><line style="stroke:#181818;stroke-width:0.5;stroke-dasharray:5,5;" x1="2038.9277" x2="2038.9277" y1="118.5938" y2="732.9844"/></g><g class="participant participant-head" data-participant="............"><text fill="#000000" font-family="sans-serif" font-size="14" lengthAdjust="spacing" textLength="103.0996" x="5" y="115.292">&#1055;&#1086;&#1083;&#1100;&#1079;&#1086;&#1074;&#1072;&#1090;&#1077;&#1083;&#1100;</text><ellipse cx="59.5498" cy="50.7969" fill="#E2E2F0" rx="8" ry="8" style="stroke:#181818;stroke-width:0.5;"/><path d="M59.5498,58.7969 L59.5498,85.7969 M46.5498,66.7969 L72.5498,66.7969 M59.5498,85.7969 L46.5498,100.7969 M59.5498,85.7969 L72.5498,100.7969" fill="none" style="stroke:#181818;stroke-width:0.5;"/></g><g class="participant participant-tail" data-participant="............"><text fill="#000000" font-family="sans-serif" font-size="14" lengthAdjust="spacing" textLength="103.0996" x="5" y="744.9795">&#1055;&#1086;&#1083;&#1100;&#1079;&#1086;&#1074;&#1072;&#1090;&#1077;&#1083;&#1100;</text><ellipse cx="59.5498" cy="756.7813" fill="#E2E2F0" rx="8" ry="8" style="stroke:#181818;stroke-width:0.5;"/><path d="M59.5498,764.7813 L59.5498,791.7813 M46.5498,772.7813 L72.5498,772.7813 M59.5498,791.7813 L46.5498,806.7813 M59.5498,791.7813 L72.5498,806.7813" fill="none" style="stroke:#181818;stroke-width:0.5;"/></g><g class="participant participant-head" data-participant="app"><rect fill="#E2E2F0" height="30.2969" rx="2.5" ry="2.5" style="stroke:#181818;stroke-width:0.5;" width="132.248" x="380.9053" y="87.2969"/><text fill="#000000" font-family="sans-serif" font-size="14" lengthAdjust="spacing" textLength="118.248" x="387.9053" y="107.292">SPA / Mobile App</text></g><g class="participant participant-tail" data-participant="app"><rect fill="#E2E2F0" height="30.2969" rx="2.5" ry="2.5" style="stroke:#181818;stroke-width:0.5;" width="132.248" x="380.9053" y="731.9844"/><text fill="#000000" font-family="sans-serif" font-size="14" lengthAdjust="spacing" textLength="118.248" x="387.9053" y="751.9795">SPA / Mobile App</text></g><g class="participant participant-head" data-participant="api"><rect fill="#E2E2F0" height="30.2969" rx="2.5" ry="2.5" style="stroke:#181818;stroke-width:0.5;" width="102.4434" x="686.8535" y="87.2969"/><text fill="#000000" font-family="sans-serif" font-size="14" lengthAdjust="spacing" textLength="88.4434" x="693.8535" y="107.292">API Gateway</text></g><g class="participant participant-tail" data-participant="api"><rect fill="#E2E2F0" height="30.2969" rx="2.5" ry="2.5" style="stroke:#181818;stroke-width:0.5;" width="102.4434" x="686.8535" y="731.9844"/><text fill="#000000" font-family="sans-serif" font-size="14" lengthAdjust="spacing" textLength="88.4434" x="693.8535" y="751.9795">API Gateway</text></g><g class="participant participant-head" data-participant="bff"><rect fill="#E2E2F0" height="30.2969" rx="2.5" ry="2.5" style="stroke:#181818;stroke-width:0.5;" width="39.71" x="799.2969" y="87.2969"/><text fill="#000000" font-family="sans-serif" font-size="14" lengthAdjust="spacing" textLength="25.71" x="806.2969" y="107.292">BFF</text></g><g class="participant participant-tail" data-participant="bff"><rect fill="#E2E2F0" height="30.2969" rx="2.5" ry="2.5" style="stroke:#181818;stroke-width:0.5;" width="39.71" x="799.2969" y="731.9844"/><text fill="#000000" font-family="sans-serif" font-size="14" lengthAdjust="spacing" textLength="25.71" x="806.2969" y="751.9795">BFF</text></g><g class="participant participant-head" data-participant="dev_svc"><rect fill="#E2E2F0" height="30.2969" rx="2.5" ry="2.5" style="stroke:#181818;stroke-width:0.5;" width="125.3643" x="1097.1797" y="87.2969"/><text fill="#000000" font-family="sans-serif" font-size="14" lengthAdjust="spacing" textLength="111.3643" x="1104.1797" y="107.292">Devices Service</text></g><g class="participant participant-tail" data-participant="dev_svc"><rect fill="#E2E2F0" height="30.2969" rx="2.5" ry="2.5" style="stroke:#181818;stroke-width:0.5;" width="125.3643" x="1097.1797" y="731.9844"/><text fill="#000000" font-family="sans-serif" font-size="14" lengthAdjust="spacing" textLength="111.3643" x="1104.1797" y="751.9795">Devices Service</text></g><g class="participant participant-head" data-participant="dev_db"><text fill="#000000" font-family="sans-serif" font-size="14" lengthAdjust="spacing" textLength="80.0078" x="1271.334" y="115.292">Devices DB</text><path d="M1296.3379,66.2969 C1296.3379,56.2969 1314.3379,56.2969 1314.3379,56.2969 C1314.3379,56.2969 1332.3379,56.2969 1332.3379,66.2969 L1332.3379,92.2969 C1332.3379,102.2969 1314.3379,102.2969 1314.3379,102.2969 C1314.3379,102.2969 1296.3379,102.2969 1296.3379,92.2969 L1296.3379,66.2969" fill="#E2E2F0" style="stroke:#181818;stroke-width:0.5;"/><path d="M1296.3379,66.2969 C1296.3379,76.2969 1314.3379,76.2969 1314.3379,76.2969 C1314.3379,76.2969 1332.3379,76.2969 1332.3379,66.2969" fill="none" style="stroke:#181818;stroke-width:0.5;"/></g><g class="participant participant-tail" data-participant="dev_db"><text fill="#000000" font-family="sans-serif" font-size="14" lengthAdjust="spacing" textLength="80.0078" x="1271.334" y="744.9795">Devices DB</text><path d="M1296.3379,758.2813 C1296.3379,748.2813 1314.3379,748.2813 1314.3379,748.2813 C1314.3379,748.2813 1332.3379,748.2813 1332.3379,758.2813 L1332.3379,784.2813 C1332.3379,794.2813 1314.3379,794.2813 1314.3379,794.2813 C1314.3379,794.2813 1296.3379,794.2813 1296.3379,784.2813 L1296.3379,758.2813" fill="#E2E2F0" style="stroke:#181818;stroke-width:0.5;"/><path d="M1296.3379,758.2813 C1296.3379,768.2813 1314.3379,768.2813 1314.3379,768.2813 C1314.3379,768.2813 1332.3379,768.2813 1332.3379,758.2813" fill="none" style="stroke:#181818;stroke-width:0.5;"/></g><g class="participant participant-head" data-participant="bus"><path d="M1395.9067,92.2969 L1519.1372,92.2969 C1524.1372,92.2969 1524.1372,105.4453 1524.1372,105.4453 C1524.1372,105.4453 1524.1372,118.5938 1519.1372,118.5938 L1395.9067,118.5938 C1390.9067,118.5938 1390.9067,105.4453 1390.9067,105.4453 C1390.9067,105.4453 1390.9067,92.2969 1395.9067,92.2969" fill="#E2E2F0" style="stroke:#181818;stroke-width:0.5;"/><path d="M1519.1372,92.2969 C1514.1372,92.2969 1514.1372,105.4453 1514.1372,105.4453 C1514.1372,118.5938 1519.1372,118.5938 1519.1372,118.5938" fill="none" style="stroke:#181818;stroke-width:0.5;"/><text fill="#000000" font-family="sans-serif" font-size="14" lengthAdjust="spacing" textLength="113.2305" x="1395.9067" y="110.292">Databus (Kafka)</text></g><g class="participant participant-tail" data-participant="bus"><path d="M1395.9067,731.9844 L1519.1372,731.9844 C1524.1372,731.9844 1524.1372,745.1328 1524.1372,745.1328 C1524.1372,745.1328 1524.1372,758.2813 1519.1372,758.2813 L1395.9067,758.2813 C1390.9067,758.2813 1390.9067,745.1328 1390.9067,745.1328 C1390.9067,745.1328 1390.9067,731.9844 1395.9067,731.9844" fill="#E2E2F0" style="stroke:#181818;stroke-width:0.5;"/><path d="M1519.1372,731.9844 C1514.1372,731.9844 1514.1372,745.1328 1514.1372,745.1328 C1514.1372,758.2813 1519.1372,758.2813 1519.1372,758.2813" fill="none" style="stroke:#181818;stroke-width:0.5;"/><text fill="#000000" font-family="sans-serif" font-size="14" lengthAdjust="spacing" textLength="113.2305" x="1395.9067" y="749.9795">Databus (Kafka)</text></g><g class="participant participant-head" data-participant="cmd_log"><rect fill="#E2E2F0" height="30.2969" rx="2.5" ry="2.5" style="stroke:#181818;stroke-width:0.5;" width="223.3301" x="1534.1372" y="87.2969"/><text fill="#000000" font-family="sans-serif" font-size="14" lengthAdjust="spacing" textLength="209.3301" x="1541.1372" y="107.292">&#1046;&#1091;&#1088;&#1085;&#1072;&#1083; &#1082;&#1086;&#1084;&#1072;&#1085;&#1076; (Clickhouse)</text></g><g class="participant participant-tail" data-participant="cmd_log"><rect fill="#E2E2F0" height="30.2969" rx="2.5" ry="2.5" style="stroke:#181818;stroke-width:0.5;" width="223.3301" x="1534.1372" y="731.9844"/><text fill="#000000" font-family="sans-serif" font-size="14" lengthAdjust="spacing" textLength="209.3301" x="1541.1372" y="751.9795">&#1046;&#1091;&#1088;&#1085;&#1072;&#1083; &#1082;&#1086;&#1084;&#1072;&#1085;&#1076; (Clickhouse)</text></g><g class="participant participant-head" data-participant="adapter_zb"><rect fill="#E2E2F0" height="30.2969" rx="2.5" ry="2.5" style="stroke:#181818;stroke-width:0.5;" width="122.7188" x="1773.2192" y="87.2969"/><text fill="#000000" font-family="sans-serif" font-size="14" lengthAdjust="spacing" textLength="108.7188" x="1780.2192" y="107.292">Zigbee Adapter</text></g><g class="participant participant-tail" data-participant="adapter_zb"><rect fill="#E2E2F0" height="30.2969" rx="2.5" ry="2.5" style="stroke:#181818;stroke-width:0.5;" width="122.7188" x="1773.2192" y="731.9844"/><text fill="#000000" font-family="sans-serif" font-size="14" lengthAdjust="spacing" textLength="108.7188" x="1780.2192" y="751.9795">Zigbee Adapter</text></g><g class="participant participant-head" data-participant="device_zb"><text fill="#000000" font-family="sans-serif" font-size="14" lengthAdjust="spacing" textLength="136.5342" x="1967.9277" y="115.292">&#1059;&#1089;&#1090;&#1088;&#1086;&#1081;&#1089;&#1090;&#1074;&#1086; Zigbee</text><ellipse cx="2039.1948" cy="86.2969" fill="#E2E2F0" rx="12" ry="12" style="stroke:#181818;stroke-width:0.5;"/><line style="stroke:#181818;stroke-width:0.5;" x1="2027.1948" x2="2051.1948" y1="100.2969" y2="100.2969"/></g><g class="participant participant-tail" data-participant="device_zb"><text fill="#000000" font-family="sans-serif" font-size="14" lengthAdjust="spacing" textLength="136.5342" x="1967.9277" y="744.9795">&#1059;&#1089;&#1090;&#1088;&#1086;&#1081;&#1089;&#1090;&#1074;&#1086; Zigbee</text><ellipse cx="2039.1948" cy="764.2813" fill="#E2E2F0" rx="12" ry="12" style="stroke:#181818;stroke-width:0.5;"/><line style="stroke:#181818;stroke-width:0.5;" x1="2027.1948" x2="2051.1948" y1="778.2813" y2="778.2813"/></g><rect fill="#EEEEEE" height="3" style="stroke:#EEEEEE;stroke-width:1;" width="2115.4619" x="0" y="149.1602"/><line style="stroke:#000000;stroke-width:1;" x1="0" x2="2115.4619" y1="149.1602" y2="149.1602"/><line style="stroke:#000000;stroke-width:1;" x1="0" x2="2115.4619" y1="152.1602" y2="152.1602"/><rect fill="#EEEEEE" height="23.1328" style="stroke:#000000;stroke-width:2;" width="162.9097" x="976.2761" y="138.5938"/><text fill="#000000" font-family="sans-serif" font-size="13" font-weight="bold" lengthAdjust="spacing" textLength="144.3838" x="982.2761" y="154.6606">&#1054;&#1090;&#1087;&#1088;&#1072;&#1074;&#1082;&#1072; &#1082;&#1086;&#1084;&#1072;&#1085;&#1076;&#1099;</text><g class="message" data-participant-1="............" data-participant-2="app"><polygon fill="#181818" points="435.0293,188.8594,445.0293,192.8594,435.0293,196.8594,439.0293,192.8594" style="stroke:#181818;stroke-width:1;"/><line style="stroke:#181818;stroke-width:1;" x1="59.5498" x2="441.0293" y1="192.8594" y2="192.8594"/><text fill="#000000" font-family="sans-serif" font-size="13" lengthAdjust="spacing" textLength="363.4795" x="66.5498" y="187.7935">&#1054;&#1090;&#1087;&#1088;&#1072;&#1074;&#1080;&#1090;&#1100; &#1082;&#1086;&#1084;&#1072;&#1085;&#1076;&#1091; (&#1085;&#1072;&#1087;&#1088;&#1080;&#1084;&#1077;&#1088;, "&#1074;&#1082;&#1083;&#1102;&#1095;&#1080;&#1090;&#1100; &#1088;&#1086;&#1079;&#1077;&#1090;&#1082;&#1091;")</text></g><g class="message" data-participant-1="app" data-participant-2="api"><polygon fill="#181818" points="726.0752,217.9922,736.0752,221.9922,726.0752,225.9922,730.0752,221.9922" style="stroke:#181818;stroke-width:1;"/><line style="stroke:#181818;stroke-width:1;" x1="447.0293" x2="732.0752" y1="221.9922" y2="221.9922"/><text fill="#000000" font-family="sans-serif" font-size="13" lengthAdjust="spacing" textLength="267.0459" x="454.0293" y="216.9263">POST /devices/{id}/commands (payload)</text></g><g class="message" data-participant-1="api" data-participant-2="bff"><polygon fill="#181818" points="807.1519,231.9922,817.1519,235.9922,807.1519,239.9922,811.1519,235.9922" style="stroke:#181818;stroke-width:1;"/><line style="stroke:#181818;stroke-width:1;" x1="738.0752" x2="813.1519" y1="235.9922" y2="235.9922"/></g><g class="message" data-participant-1="bff" data-participant-2="dev_svc"><polygon fill="#181818" points="1147.8618,261.125,1157.8618,265.125,1147.8618,269.125,1151.8618,265.125" style="stroke:#181818;stroke-width:1;"/><line style="stroke:#181818;stroke-width:1;" x1="819.1519" x2="1153.8618" y1="265.125" y2="265.125"/><text fill="#000000" font-family="sans-serif" font-size="13" lengthAdjust="spacing" textLength="295.4453" x="826.1519" y="260.0591">&#1055;&#1088;&#1086;&#1074;&#1077;&#1088;&#1082;&#1072; &#1091;&#1089;&#1090;&#1088;&#1086;&#1081;&#1089;&#1090;&#1074;&#1072;, &#1074;&#1072;&#1083;&#1080;&#1076;&#1072;&#1094;&#1080;&#1103; &#1082;&#1086;&#1084;&#1072;&#1085;&#1076;&#1099;</text></g><g class="message" data-participant-1="dev_svc" data-participant-2="dev_db"><polygon fill="#181818" points="1302.3379,290.2578,1312.3379,294.2578,1302.3379,298.2578,1306.3379,294.2578" style="stroke:#181818;stroke-width:1;"/><line style="stroke:#181818;stroke-width:1;" x1="1159.8618" x2="1308.3379" y1="294.2578" y2="294.2578"/><text fill="#000000" font-family="sans-serif" font-size="13" lengthAdjust="spacing" textLength="130.4761" x="1166.8618" y="289.1919">SELECT &#1091;&#1089;&#1090;&#1088;&#1086;&#1081;&#1089;&#1090;&#1074;&#1086;</text></g><g class="message" data-participant-1="dev_db" data-participant-2="dev_svc"><polygon fill="#181818" points="1170.8618,319.3906,1160.8618,323.3906,1170.8618,327.3906,1166.8618,323.3906" style="stroke:#181818;stroke-width:1;"/><line style="stroke:#181818;stroke-width:1;stroke-dasharray:2,2;" x1="1164.8618" x2="1313.3379" y1="323.3906" y2="323.3906"/><text fill="#000000" font-family="sans-serif" font-size="13" lengthAdjust="spacing" textLength="71.2144" x="1176.8618" y="318.3247">device info</text></g><g class="message" data-participant-1="dev_svc" data-participant-2="cmd_log"><polygon fill="#181818" points="1633.8022,348.5234,1643.8022,352.5234,1633.8022,356.5234,1637.8022,352.5234" style="stroke:#181818;stroke-width:1;"/><line style="stroke:#181818;stroke-width:1;" x1="1159.8618" x2="1639.8022" y1="352.5234" y2="352.5234"/><text fill="#000000" font-family="sans-serif" font-size="13" lengthAdjust="spacing" textLength="262.4756" x="1166.8618" y="347.4575">INSERT &#1079;&#1072;&#1087;&#1080;&#1089;&#1100; &#1082;&#1086;&#1084;&#1072;&#1085;&#1076;&#1099; (status=SENT)</text></g><g class="message" data-participant-1="dev_svc" data-participant-2="bus"><polygon fill="#181818" points="1445.522,377.6563,1455.522,381.6563,1445.522,385.6563,1449.522,381.6563" style="stroke:#181818;stroke-width:1;"/><line style="stroke:#181818;stroke-width:1;" x1="1159.8618" x2="1451.522" y1="381.6563" y2="381.6563"/><text fill="#000000" font-family="sans-serif" font-size="13" lengthAdjust="spacing" textLength="273.6602" x="1166.8618" y="376.5903">&#1055;&#1091;&#1073;&#1083;&#1080;&#1082;&#1072;&#1094;&#1080;&#1103; &#1089;&#1086;&#1073;&#1099;&#1090;&#1080;&#1103; "command_issued"</text></g><rect fill="#EEEEEE" height="3" style="stroke:#EEEEEE;stroke-width:1;" width="2115.4619" x="0" y="410.2227"/><line style="stroke:#000000;stroke-width:1;" x1="0" x2="2115.4619" y1="410.2227" y2="410.2227"/><line style="stroke:#000000;stroke-width:1;" x1="0" x2="2115.4619" y1="413.2227" y2="413.2227"/><rect fill="#EEEEEE" height="23.1328" style="stroke:#000000;stroke-width:2;" width="161.7861" x="976.8379" y="399.6563"/><text fill="#000000" font-family="sans-serif" font-size="13" font-weight="bold" lengthAdjust="spacing" textLength="143.2603" x="982.8379" y="415.7231">&#1044;&#1086;&#1089;&#1090;&#1072;&#1074;&#1082;&#1072; &#1082;&#1086;&#1084;&#1072;&#1085;&#1076;&#1099;</text><g class="message" data-participant-1="bus" data-participant-2="adapter_zb"><polygon fill="#181818" points="1822.5786,449.9219,1832.5786,453.9219,1822.5786,457.9219,1826.5786,453.9219" style="stroke:#181818;stroke-width:1;"/><line style="stroke:#181818;stroke-width:1;" x1="1457.522" x2="1828.5786" y1="453.9219" y2="453.9219"/><text fill="#000000" font-family="sans-serif" font-size="13" lengthAdjust="spacing" textLength="171.209" x="1464.522" y="448.856">&#1050;&#1086;&#1084;&#1072;&#1085;&#1076;&#1072; &#1076;&#1083;&#1103; &#1091;&#1089;&#1090;&#1088;&#1086;&#1081;&#1089;&#1090;&#1074;&#1072;</text></g><g class="message" data-participant-1="adapter_zb" data-participant-2="device_zb"><polygon fill="#181818" points="2027.1948,479.0547,2037.1948,483.0547,2027.1948,487.0547,2031.1948,483.0547" style="stroke:#181818;stroke-width:1;"/><line style="stroke:#181818;stroke-width:1;" x1="1834.5786" x2="2033.1948" y1="483.0547" y2="483.0547"/><text fill="#000000" font-family="sans-serif" font-size="13" lengthAdjust="spacing" textLength="180.6162" x="1841.5786" y="477.9888">&#1054;&#1090;&#1087;&#1088;&#1072;&#1074;&#1082;&#1072; Zigbee &#1082;&#1086;&#1084;&#1072;&#1085;&#1076;&#1099;</text></g><g class="message" data-participant-1="device_zb" data-participant-2="adapter_zb"><polygon fill="#181818" points="1845.5786,508.1875,1835.5786,512.1875,1845.5786,516.1875,1841.5786,512.1875" style="stroke:#181818;stroke-width:1;"/><line style="stroke:#181818;stroke-width:1;stroke-dasharray:2,2;" x1="1839.5786" x2="2038.1948" y1="512.1875" y2="512.1875"/><text fill="#000000" font-family="sans-serif" font-size="13" lengthAdjust="spacing" textLength="179.9497" x="1851.5786" y="507.1216">&#1054;&#1090;&#1074;&#1077;&#1090; (&#1091;&#1089;&#1087;&#1077;&#1093; &#1080;&#1083;&#1080; &#1086;&#1096;&#1080;&#1073;&#1082;&#1072;)</text></g><rect fill="#EEEEEE" height="3" style="stroke:#EEEEEE;stroke-width:1;" width="2115.4619" x="0" y="540.7539"/><line style="stroke:#000000;stroke-width:1;" x1="0" x2="2115.4619" y1="540.7539" y2="540.7539"/><line style="stroke:#000000;stroke-width:1;" x1="0" x2="2115.4619" y1="543.7539" y2="543.7539"/><rect fill="#EEEEEE" height="23.1328" style="stroke:#000000;stroke-width:2;" width="187.9639" x="963.749" y="530.1875"/><text fill="#000000" font-family="sans-serif" font-size="13" font-weight="bold" lengthAdjust="spacing" textLength="169.438" x="969.749" y="546.2544">&#1055;&#1086;&#1076;&#1090;&#1074;&#1077;&#1088;&#1078;&#1076;&#1077;&#1085;&#1080;&#1077; (ACK)</text><g class="message" data-participant-1="adapter_zb" data-participant-2="bus"><polygon fill="#181818" points="1468.522,580.4531,1458.522,584.4531,1468.522,588.4531,1464.522,584.4531" style="stroke:#181818;stroke-width:1;"/><line style="stroke:#181818;stroke-width:1;" x1="1462.522" x2="1833.5786" y1="584.4531" y2="584.4531"/><text fill="#000000" font-family="sans-serif" font-size="13" lengthAdjust="spacing" textLength="353.0566" x="1474.522" y="579.3872">&#1055;&#1091;&#1073;&#1083;&#1080;&#1082;&#1072;&#1094;&#1080;&#1103; "command_ack" (status=ACKED/ERROR)</text></g><g class="message" data-participant-1="bus" data-participant-2="dev_svc"><polygon fill="#181818" points="1170.8618,609.5859,1160.8618,613.5859,1170.8618,617.5859,1166.8618,613.5859" style="stroke:#181818;stroke-width:1;"/><line style="stroke:#181818;stroke-width:1;" x1="1164.8618" x2="1456.522" y1="613.5859" y2="613.5859"/><text fill="#000000" font-family="sans-serif" font-size="13" lengthAdjust="spacing" textLength="156.3936" x="1176.8618" y="608.52">&#1055;&#1086;&#1083;&#1091;&#1095;&#1077;&#1085;&#1080;&#1077; &#1088;&#1077;&#1079;&#1091;&#1083;&#1100;&#1090;&#1072;&#1090;&#1072;</text></g><g class="message" data-participant-1="dev_svc" data-participant-2="cmd_log"><polygon fill="#181818" points="1633.8022,638.7188,1643.8022,642.7188,1633.8022,646.7188,1637.8022,642.7188" style="stroke:#181818;stroke-width:1;"/><line style="stroke:#181818;stroke-width:1;" x1="1159.8618" x2="1639.8022" y1="642.7188" y2="642.7188"/><text fill="#000000" font-family="sans-serif" font-size="13" lengthAdjust="spacing" textLength="161.9541" x="1166.8618" y="637.6528">UPDATE status &#1082;&#1086;&#1084;&#1072;&#1085;&#1076;&#1099;</text></g><g class="message" data-participant-1="dev_svc" data-participant-2="bff"><polygon fill="#181818" points="830.1519,667.8516,820.1519,671.8516,830.1519,675.8516,826.1519,671.8516" style="stroke:#181818;stroke-width:1;"/><line style="stroke:#181818;stroke-width:1;" x1="824.1519" x2="1158.8618" y1="671.8516" y2="671.8516"/><text fill="#000000" font-family="sans-serif" font-size="13" lengthAdjust="spacing" textLength="316.71" x="836.1519" y="666.7856">&#1054;&#1090;&#1074;&#1077;&#1090; &#1087;&#1086;&#1083;&#1100;&#1079;&#1086;&#1074;&#1072;&#1090;&#1077;&#1083;&#1102; &#1089; &#1080;&#1090;&#1086;&#1075;&#1086;&#1084; (&#1091;&#1089;&#1087;&#1077;&#1093;/&#1086;&#1096;&#1080;&#1073;&#1082;&#1072;)</text></g><g class="message" data-participant-1="bff" data-participant-2="api"><polygon fill="#181818" points="749.0752,681.8516,739.0752,685.8516,749.0752,689.8516,745.0752,685.8516" style="stroke:#181818;stroke-width:1;"/><line style="stroke:#181818;stroke-width:1;" x1="743.0752" x2="818.1519" y1="685.8516" y2="685.8516"/></g><g class="message" data-participant-1="api" data-participant-2="app"><polygon fill="#181818" points="458.0293,710.9844,448.0293,714.9844,458.0293,718.9844,454.0293,714.9844" style="stroke:#181818;stroke-width:1;"/><line style="stroke:#181818;stroke-width:1;" x1="452.0293" x2="737.0752" y1="714.9844" y2="714.9844"/><text fill="#000000" font-family="sans-serif" font-size="13" lengthAdjust="spacing" textLength="257.1499" x="464.0293" y="709.9185">JSON {status: "ACKED", timestamp: ...}</text></g><!--SRC=[VLJDJXfH5DxFKvomWaHXRq8J56oihHAWcsx8dH_iZS1CcS766XE4z2VHwARfeWjTz0NGCXL5wIlS-qOzvzu16Q0kPd9_pldEET_vxWbuK7T0N8cnF14Z4Og168iRqPTTN8_acNYa6zcLPu1NeRYZ3HeCnHs8lx8ZXe06NRNiu_cz205_O_60sqSnaATeXbk2kfs5nky1P4zXT_0Y0fOzms1MuBPKJejkyipmM2lW5lTOCu14kPY33BnnJOvbv3ml0Sm7vdbngrnn2rwomFd83YC37ZTOtznK5sQj5h_8EmVSSdmeEorQA2FREQZw1vPXiu2Pp7UUhFBhKmFRD3wqdJPTabdRX-Gsg-spb8xJzkDnn0_aeeECzSKeHY0aD-hSsd_ljdr7-reDkrftz-B-x_YUwI03DlC2fwMBrElg9zDmcW4F3Z7Ahtc-nHYqwoHnh8CyZ6mMn6MiiVtvncQpnl-Q1Ailg0km5WSPQY7DmlGWgQfMMiBJK7PMC54AE9BdyclaetA-nTkkk9UzHCeWT1M4Ov3YRha26PszdpdYzd76SXiDrhIHTeyTrbrcamid5-enVhICEabfNga8DnHVrReeJT5V0VgZTeVu5lho2-PsCKUACO6Cq6qJmSk5ruMDoZB8iH4PhSQoqPK0RzPSOnOnQZrQREsK2wKA82L87UPnCi_hAIJzW0LjFrikx5HIioWaHbLnJrohOkwdnU0G68jhUOh9qJOHiLZbljzsx8IMnNSz4fwH1KMWvamLIF5-FbcHqm3xUx6KPcF6JzEYHJcl9eeTwNwn2P7Bwa8Qboe82WcI51pP2-LdG1P6UfPzm-KrOQTqjQJmGUJJ4N_K57n4cn2IkOtj59KRp_SPUgTyCci_CMqGmXJocKAfj5jAJQYRLQPwOZry2fF0c4SeRX4VNnhrWRxbCdbRpESg1T21df4glOSODyk7jZn7XG0zIJpzJM2p96RYx4LlZ6PjzFBqH7XLtjs18vtI6ivcgZwn0W5lE7ZOyDOWdKuV_mC0]--></g></svg>