<svg xmlns="http://www.w3.org/2000/svg" xmlns:xlink="http://www.w3.org/1999/xlink" contentStyleType="text/css" data-diagram-type="CLASS" height="979px" preserveAspectRatio="none" style="width:1200px;height:979px;background:#FFFFFF;" version="1.1" viewBox="0 0 1200 979" width="1200px" zoomAndPan="magnify"><title>ER-&#1076;&#1080;&#1072;&#1075;&#1088;&#1072;&#1084;&#1084;&#1072; - &#1059;&#1084;&#1085;&#1099;&#1081; &#1076;&#1086;&#1084; (&#1089;&#1087;&#1088;&#1072;&#1074;&#1086;&#1095;&#1085;&#1080;&#1082;&#1080; &#1076;&#1083;&#1103; &#1087;&#1088;&#1086;&#1090;&#1086;&#1082;&#1086;&#1083;&#1086;&#1074; &#1080; &#1089;&#1090;&#1072;&#1090;&#1091;&#1089;&#1086;&#1074;)</title><defs/><g><g class="title" data-source-line="1"><text fill="#000000" font-family="sans-serif" font-size="14" font-weight="bold" lengthAdjust="spacing" textLength="569.6387" x="308.3149" y="22.9951">ER-&#1076;&#1080;&#1072;&#1075;&#1088;&#1072;&#1084;&#1084;&#1072; - &#1059;&#1084;&#1085;&#1099;&#1081; &#1076;&#1086;&#1084; (&#1089;&#1087;&#1088;&#1072;&#1074;&#1086;&#1095;&#1085;&#1080;&#1082;&#1080; &#1076;&#1083;&#1103; &#1087;&#1088;&#1086;&#1090;&#1086;&#1082;&#1086;&#1083;&#1086;&#1074; &#1080; &#1089;&#1090;&#1072;&#1090;&#1091;&#1089;&#1086;&#1074;)</text></g><!--class users--><g class="entity" data-entity="users" data-source-line="3" data-uid="ent0002" id="entity_users"><rect fill="#F1F1F1" height="129.4844" rx="2.5" ry="2.5" style="stroke:#181818;stroke-width:0.5;" width="188.3037" x="7" y="258.9269"/><ellipse cx="22" cy="274.9269" fill="#ADD1B2" rx="11" ry="11" style="stroke:#181818;stroke-width:1;"/><path d="M26.1094,280.9269 L18.3906,280.9269 L18.3906,268.5363 L26.1094,268.5363 L26.1094,270.6925 L20.8438,270.6925 L20.8438,273.3644 L25.6094,273.3644 L25.6094,275.5206 L20.8438,275.5206 L20.8438,278.7706 L26.1094,278.7706 L26.1094,280.9269 Z " fill="#000000"/><text fill="#000000" font-family="sans-serif" font-size="14" lengthAdjust="spacing" textLength="156.3037" x="36" y="279.7736">&#1055;&#1086;&#1083;&#1100;&#1079;&#1086;&#1074;&#1072;&#1090;&#1077;&#1083;&#1100; (users)</text><line style="stroke:#181818;stroke-width:0.5;" x1="8" x2="194.3037" y1="290.9269" y2="290.9269"/><ellipse cx="18" cy="304.5753" fill="#000000" rx="3" ry="3" style="stroke:#000000;stroke-width:1;"/><text fill="#000000" font-family="sans-serif" font-size="14" lengthAdjust="spacing" textLength="138.5371" x="27" y="307.922">user_id : UUID &#171;PK&#187;</text><line style="stroke:#181818;stroke-width:1;" x1="8" x2="194.3037" y1="315.2238" y2="315.2238"/><text fill="#000000" font-family="sans-serif" font-size="14" lengthAdjust="spacing" textLength="105.752" x="13" y="332.2189">email : varchar</text><text fill="#000000" font-family="sans-serif" font-size="14" lengthAdjust="spacing" textLength="174.4736" x="13" y="348.5157">password_hash : varchar</text><text fill="#000000" font-family="sans-serif" font-size="14" lengthAdjust="spacing" textLength="106.8457" x="13" y="364.8126">name : varchar</text><text fill="#000000" font-family="sans-serif" font-size="14" lengthAdjust="spacing" textLength="163.8369" x="13" y="381.1095">created_at : timestamp</text></g><!--class adapters--><g class="entity" data-entity="adapters" data-source-line="12" data-uid="ent0003" id="entity_adapters"><rect fill="#F1F1F1" height="129.4844" rx="2.5" ry="2.5" style="stroke:#181818;stroke-width:0.5;" width="188.791" x="230.76" y="258.9269"/><ellipse cx="253.2698" cy="274.9269" fill="#ADD1B2" rx="11" ry="11" style="stroke:#181818;stroke-width:1;"/><path d="M257.3792,280.9269 L249.6604,280.9269 L249.6604,268.5363 L257.3792,268.5363 L257.3792,270.6925 L252.1136,270.6925 L252.1136,273.3644 L256.8792,273.3644 L256.8792,275.5206 L252.1136,275.5206 L252.1136,278.7706 L257.3792,278.7706 L257.3792,280.9269 Z " fill="#000000"/><text fill="#000000" font-family="sans-serif" font-size="14" lengthAdjust="spacing" textLength="140.1025" x="268.9387" y="279.7736">&#1040;&#1076;&#1072;&#1087;&#1090;&#1077;&#1088; (adapters)</text><line style="stroke:#181818;stroke-width:0.5;" x1="231.76" x2="418.551" y1="290.9269" y2="290.9269"/><ellipse cx="241.76" cy="304.5753" fill="#000000" rx="3" ry="3" style="stroke:#000000;stroke-width:1;"/><text fill="#000000" font-family="sans-serif" font-size="14" lengthAdjust="spacing" textLength="162.791" x="250.76" y="307.922">adapter_id : UUID &#171;PK&#187;</text><line style="stroke:#181818;stroke-width:1;" x1="231.76" x2="418.551" y1="315.2238" y2="315.2238"/><text fill="#000000" font-family="sans-serif" font-size="14" lengthAdjust="spacing" textLength="106.8457" x="236.76" y="332.2189">name : varchar</text><text fill="#000000" font-family="sans-serif" font-size="14" lengthAdjust="spacing" textLength="165.0264" x="236.76" y="348.5157">protocol_id : UUID &#171;FK&#187;</text><text fill="#000000" font-family="sans-serif" font-size="14" lengthAdjust="spacing" textLength="119.335" x="236.76" y="364.8126">description : text</text><text fill="#000000" font-family="sans-serif" font-size="14" lengthAdjust="spacing" textLength="163.8369" x="236.76" y="381.1095">created_at : timestamp</text></g><!--class device_types--><g class="entity" data-entity="device_types" data-source-line="21" data-uid="ent0004" id="entity_device_types"><rect fill="#F1F1F1" height="178.375" rx="2.5" ry="2.5" style="stroke:#181818;stroke-width:0.5;" width="253.5527" x="454.38" y="234.4769"/><ellipse cx="469.38" cy="250.4769" fill="#ADD1B2" rx="11" ry="11" style="stroke:#181818;stroke-width:1;"/><path d="M473.4894,256.4769 L465.7706,256.4769 L465.7706,244.0863 L473.4894,244.0863 L473.4894,246.2425 L468.2238,246.2425 L468.2238,248.9144 L472.9894,248.9144 L472.9894,251.0706 L468.2238,251.0706 L468.2238,254.3206 L473.4894,254.3206 L473.4894,256.4769 Z " fill="#000000"/><text fill="#000000" font-family="sans-serif" font-size="14" lengthAdjust="spacing" textLength="221.5527" x="483.38" y="255.3236">&#1058;&#1080;&#1087; &#1091;&#1089;&#1090;&#1088;&#1086;&#1081;&#1089;&#1090;&#1074;&#1072; (device_types)</text><line style="stroke:#181818;stroke-width:0.5;" x1="455.38" x2="706.9327" y1="266.4769" y2="266.4769"/><ellipse cx="465.38" cy="280.1253" fill="#000000" rx="3" ry="3" style="stroke:#000000;stroke-width:1;"/><text fill="#000000" font-family="sans-serif" font-size="14" lengthAdjust="spacing" textLength="192.2607" x="474.38" y="283.472">device_type_id : UUID &#171;PK&#187;</text><line style="stroke:#181818;stroke-width:1;" x1="455.38" x2="706.9327" y1="290.7738" y2="290.7738"/><text fill="#000000" font-family="sans-serif" font-size="14" lengthAdjust="spacing" textLength="106.8457" x="460.38" y="307.7689">name : varchar</text><text fill="#000000" font-family="sans-serif" font-size="14" lengthAdjust="spacing" textLength="165.0264" x="460.38" y="324.0657">protocol_id : UUID &#171;FK&#187;</text><text fill="#000000" font-family="sans-serif" font-size="14" lengthAdjust="spacing" textLength="206.5479" x="460.38" y="340.3626">supported_commands : jsonb</text><text fill="#000000" font-family="sans-serif" font-size="14" lengthAdjust="spacing" textLength="181.7539" x="460.38" y="356.6595">supported_metrics : jsonb</text><text fill="#000000" font-family="sans-serif" font-size="14" lengthAdjust="spacing" textLength="162.7979" x="460.38" y="372.9564">manufacturer : varchar</text><text fill="#000000" font-family="sans-serif" font-size="14" lengthAdjust="spacing" textLength="110.7354" x="460.38" y="389.2532">model : varchar</text><text fill="#000000" font-family="sans-serif" font-size="14" lengthAdjust="spacing" textLength="163.8369" x="460.38" y="405.5501">created_at : timestamp</text></g><!--class devices--><g class="entity" data-entity="devices" data-source-line="33" data-uid="ent0005" id="entity_devices"><rect fill="#F1F1F1" height="210.9688" rx="2.5" ry="2.5" style="stroke:#181818;stroke-width:0.5;" width="203.8711" x="396.22" y="489.8569"/><ellipse cx="420.0464" cy="505.8569" fill="#ADD1B2" rx="11" ry="11" style="stroke:#181818;stroke-width:1;"/><path d="M424.1558,511.8569 L416.437,511.8569 L416.437,499.4663 L424.1558,499.4663 L424.1558,501.6225 L418.8902,501.6225 L418.8902,504.2944 L423.6558,504.2944 L423.6558,506.4506 L418.8902,506.4506 L418.8902,509.7006 L424.1558,509.7006 L424.1558,511.8569 Z " fill="#000000"/><text fill="#000000" font-family="sans-serif" font-size="14" lengthAdjust="spacing" textLength="152.2568" x="436.0078" y="510.7036">&#1059;&#1089;&#1090;&#1088;&#1086;&#1081;&#1089;&#1090;&#1074;&#1086; (devices)</text><line style="stroke:#181818;stroke-width:0.5;" x1="397.22" x2="599.0911" y1="521.8569" y2="521.8569"/><ellipse cx="407.22" cy="535.5053" fill="#000000" rx="3" ry="3" style="stroke:#000000;stroke-width:1;"/><text fill="#000000" font-family="sans-serif" font-size="14" lengthAdjust="spacing" textLength="153.9863" x="416.22" y="538.852">device_id : UUID &#171;PK&#187;</text><line style="stroke:#181818;stroke-width:1;" x1="397.22" x2="599.0911" y1="546.1538" y2="546.1538"/><text fill="#000000" font-family="sans-serif" font-size="14" lengthAdjust="spacing" textLength="138.1475" x="402.22" y="563.1489">user_id : UUID &#171;FK&#187;</text><text fill="#000000" font-family="sans-serif" font-size="14" lengthAdjust="spacing" textLength="162.4014" x="402.22" y="579.4457">adapter_id : UUID &#171;FK&#187;</text><text fill="#000000" font-family="sans-serif" font-size="14" lengthAdjust="spacing" textLength="191.8711" x="402.22" y="595.7426">device_type_id : UUID &#171;FK&#187;</text><text fill="#000000" font-family="sans-serif" font-size="14" lengthAdjust="spacing" textLength="165.0264" x="402.22" y="612.0395">protocol_id : UUID &#171;FK&#187;</text><text fill="#000000" font-family="sans-serif" font-size="14" lengthAdjust="spacing" textLength="150.6299" x="402.22" y="628.3364">status_id : UUID &#171;FK&#187;</text><text fill="#000000" font-family="sans-serif" font-size="14" lengthAdjust="spacing" textLength="106.8457" x="402.22" y="644.6332">name : varchar</text><text fill="#000000" font-family="sans-serif" font-size="14" lengthAdjust="spacing" textLength="166.8037" x="402.22" y="660.9301">serial_number : varchar</text><text fill="#000000" font-family="sans-serif" font-size="14" lengthAdjust="spacing" textLength="158.3818" x="402.22" y="677.227">protocol_config : jsonb</text><text fill="#000000" font-family="sans-serif" font-size="14" lengthAdjust="spacing" textLength="163.8369" x="402.22" y="693.5239">created_at : timestamp</text></g><!--class statuses--><g class="entity" data-entity="statuses" data-source-line="47" data-uid="ent0006" id="entity_statuses"><rect fill="#F1F1F1" height="113.1875" rx="2.5" ry="2.5" style="stroke:#181818;stroke-width:0.5;" width="300.2285" x="893.04" y="267.0769"/><ellipse cx="908.04" cy="283.0769" fill="#ADD1B2" rx="11" ry="11" style="stroke:#181818;stroke-width:1;"/><path d="M912.1494,289.0769 L904.4306,289.0769 L904.4306,276.6863 L912.1494,276.6863 L912.1494,278.8425 L906.8838,278.8425 L906.8838,281.5144 L911.6494,281.5144 L911.6494,283.6706 L906.8838,283.6706 L906.8838,286.9206 L912.1494,286.9206 L912.1494,289.0769 Z " fill="#000000"/><text fill="#000000" font-family="sans-serif" font-size="14" lengthAdjust="spacing" textLength="268.2285" x="922.04" y="287.9236">&#1057;&#1090;&#1072;&#1090;&#1091;&#1089;&#1099; &#1091;&#1089;&#1090;&#1088;&#1086;&#1081;&#1089;&#1090;&#1074; (device_statuses)</text><line style="stroke:#181818;stroke-width:0.5;" x1="894.04" x2="1192.2685" y1="299.0769" y2="299.0769"/><ellipse cx="904.04" cy="312.7253" fill="#000000" rx="3" ry="3" style="stroke:#000000;stroke-width:1;"/><text fill="#000000" font-family="sans-serif" font-size="14" lengthAdjust="spacing" textLength="151.0195" x="913.04" y="316.072">status_id : UUID &#171;PK&#187;</text><line style="stroke:#181818;stroke-width:1;" x1="894.04" x2="1192.2685" y1="323.3738" y2="323.3738"/><text fill="#000000" font-family="sans-serif" font-size="14" lengthAdjust="spacing" textLength="100.9053" x="899.04" y="340.3689">code : varchar</text><text fill="#000000" font-family="sans-serif" font-size="14" lengthAdjust="spacing" textLength="119.335" x="899.04" y="356.6657">description : text</text><text fill="#000000" font-family="sans-serif" font-size="14" lengthAdjust="spacing" textLength="130.3271" x="899.04" y="372.9626">is_active : boolean</text></g><!--class protocols--><g class="entity" data-entity="protocols" data-source-line="55" data-uid="ent0007" id="entity_protocols"><rect fill="#F1F1F1" height="113.1875" rx="2.5" ry="2.5" style="stroke:#181818;stroke-width:0.5;" width="339.6396" x="411.33" y="44.2969"/><ellipse cx="495.9965" cy="60.2969" fill="#ADD1B2" rx="11" ry="11" style="stroke:#181818;stroke-width:1;"/><path d="M500.1059,66.2969 L492.3871,66.2969 L492.3871,53.9063 L500.1059,53.9063 L500.1059,56.0625 L494.8403,56.0625 L494.8403,58.7344 L499.6059,58.7344 L499.6059,60.8906 L494.8403,60.8906 L494.8403,64.1406 L500.1059,64.1406 L500.1059,66.2969 Z " fill="#000000"/><text fill="#000000" font-family="sans-serif" font-size="14" lengthAdjust="spacing" textLength="161.8066" x="516.4965" y="65.1436">&#1055;&#1088;&#1086;&#1090;&#1086;&#1082;&#1086;&#1083;&#1099; (protocols)</text><line style="stroke:#181818;stroke-width:0.5;" x1="412.33" x2="749.9696" y1="76.2969" y2="76.2969"/><ellipse cx="422.33" cy="89.9453" fill="#000000" rx="3" ry="3" style="stroke:#000000;stroke-width:1;"/><text fill="#000000" font-family="sans-serif" font-size="14" lengthAdjust="spacing" textLength="165.416" x="431.33" y="93.292">protocol_id : UUID &#171;PK&#187;</text><line style="stroke:#181818;stroke-width:1;" x1="412.33" x2="749.9696" y1="100.5938" y2="100.5938"/><text fill="#000000" font-family="sans-serif" font-size="14" lengthAdjust="spacing" textLength="327.6396" x="417.33" y="117.5889">code : varchar       -- ZIGBEE, BLE, REST, MQTT</text><text fill="#000000" font-family="sans-serif" font-size="14" lengthAdjust="spacing" textLength="119.335" x="417.33" y="133.8857">description : text</text><text fill="#000000" font-family="sans-serif" font-size="14" lengthAdjust="spacing" textLength="171.5615" x="417.33" y="150.1826">supports_push : boolean</text></g><!--class commands--><g class="entity" data-entity="commands" data-source-line="63" data-uid="ent0008" id="entity_commands"><rect fill="#F1F1F1" height="194.6719" rx="2.5" ry="2.5" style="stroke:#181818;stroke-width:0.5;" width="203.8779" x="116.21" y="777.8269"/><ellipse cx="137.6339" cy="793.8269" fill="#ADD1B2" rx="11" ry="11" style="stroke:#181818;stroke-width:1;"/><path d="M141.7433,799.8269 L134.0246,799.8269 L134.0246,787.4363 L141.7433,787.4363 L141.7433,789.5925 L136.4777,789.5925 L136.4777,792.2644 L141.2433,792.2644 L141.2433,794.4206 L136.4777,794.4206 L136.4777,797.6706 L141.7433,797.6706 L141.7433,799.8269 Z " fill="#000000"/><text fill="#000000" font-family="sans-serif" font-size="14" lengthAdjust="spacing" textLength="157.6025" x="153.0615" y="798.6736">&#1050;&#1086;&#1084;&#1072;&#1085;&#1076;&#1072; (commands)</text><line style="stroke:#181818;stroke-width:0.5;" x1="117.21" x2="319.0879" y1="809.8269" y2="809.8269"/><ellipse cx="127.21" cy="823.4753" fill="#000000" rx="3" ry="3" style="stroke:#000000;stroke-width:1;"/><text fill="#000000" font-family="sans-serif" font-size="14" lengthAdjust="spacing" textLength="177.8779" x="136.21" y="826.822">command_id : UUID &#171;PK&#187;</text><line style="stroke:#181818;stroke-width:1;" x1="117.21" x2="319.0879" y1="834.1238" y2="834.1238"/><text fill="#000000" font-family="sans-serif" font-size="14" lengthAdjust="spacing" textLength="153.5967" x="122.21" y="851.1189">device_id : UUID &#171;FK&#187;</text><text fill="#000000" font-family="sans-serif" font-size="14" lengthAdjust="spacing" textLength="138.1475" x="122.21" y="867.4157">user_id : UUID &#171;FK&#187;</text><text fill="#000000" font-family="sans-serif" font-size="14" lengthAdjust="spacing" textLength="175.2939" x="122.21" y="883.7126">command_type : varchar</text><text fill="#000000" font-family="sans-serif" font-size="14" lengthAdjust="spacing" textLength="106.7979" x="122.21" y="900.0095">payload : jsonb</text><text fill="#000000" font-family="sans-serif" font-size="14" lengthAdjust="spacing" textLength="110.1611" x="122.21" y="916.3064">status : varchar</text><text fill="#000000" font-family="sans-serif" font-size="14" lengthAdjust="spacing" textLength="163.8369" x="122.21" y="932.6032">created_at : timestamp</text><text fill="#000000" font-family="sans-serif" font-size="14" lengthAdjust="spacing" textLength="152.1475" x="122.21" y="948.9001">ack_time : timestamp</text><text fill="#000000" font-family="sans-serif" font-size="14" lengthAdjust="spacing" textLength="105.3896" x="122.21" y="965.197">response : text</text></g><!--class telemetry--><g class="entity" data-entity="telemetry" data-source-line="76" data-uid="ent0009" id="entity_telemetry"><rect fill="#F1F1F1" height="129.4844" rx="2.5" ry="2.5" style="stroke:#181818;stroke-width:0.5;" width="206.8994" x="394.7" y="810.4169"/><ellipse cx="410.9037" cy="826.4169" fill="#ADD1B2" rx="11" ry="11" style="stroke:#181818;stroke-width:1;"/><path d="M415.013,832.4169 L407.2943,832.4169 L407.2943,820.0263 L415.013,820.0263 L415.013,822.1825 L409.7474,822.1825 L409.7474,824.8544 L414.513,824.8544 L414.513,827.0106 L409.7474,827.0106 L409.7474,830.2606 L415.013,830.2606 L415.013,832.4169 Z " fill="#000000"/><text fill="#000000" font-family="sans-serif" font-size="14" lengthAdjust="spacing" textLength="172.2246" x="425.1711" y="831.2636">&#1058;&#1077;&#1083;&#1077;&#1084;&#1077;&#1090;&#1088;&#1080;&#1103; (telemetry)</text><line style="stroke:#181818;stroke-width:0.5;" x1="395.7" x2="600.5994" y1="842.4169" y2="842.4169"/><ellipse cx="405.7" cy="856.0653" fill="#000000" rx="3" ry="3" style="stroke:#000000;stroke-width:1;"/><text fill="#000000" font-family="sans-serif" font-size="14" lengthAdjust="spacing" textLength="180.8994" x="414.7" y="859.412">telemetry_id : bigint &#171;PK&#187;</text><line style="stroke:#181818;stroke-width:1;" x1="395.7" x2="600.5994" y1="866.7138" y2="866.7138"/><text fill="#000000" font-family="sans-serif" font-size="14" lengthAdjust="spacing" textLength="153.5967" x="400.7" y="883.7089">device_id : UUID &#171;FK&#187;</text><text fill="#000000" font-family="sans-serif" font-size="14" lengthAdjust="spacing" textLength="164.6504" x="400.7" y="900.0057">timestamp : timestamp</text><text fill="#000000" font-family="sans-serif" font-size="14" lengthAdjust="spacing" textLength="158.9287" x="400.7" y="916.3026">metric_name : varchar</text><text fill="#000000" font-family="sans-serif" font-size="14" lengthAdjust="spacing" textLength="151.6553" x="400.7" y="932.5995">metric_value : double</text></g><!--link users to devices--><g class="link" data-entity-1="users" data-entity-2="devices" data-source-line="86" data-uid="lnk10" id="link_users_devices"><path codeLine="86" d="M186.916,393.6249 C197.736,401.8949 202.45,405.2669 213.15,412.8569 C272.36,454.8569 325.6124,489.187 380.6524,523.237" fill="none" id="users-devices" style="stroke:#181818;stroke-width:1;"/><line style="stroke:#181818;stroke-width:1;" x1="181.309" x2="186.1671" y1="394.3739" y2="388.0179"/><line style="stroke:#181818;stroke-width:1;" x1="183.6925" x2="188.5506" y1="396.1957" y2="389.8397"/><line style="stroke:#181818;stroke-width:1;" x1="186.916" x2="180.56" y1="393.6249" y2="388.7669"/><line style="stroke:#181818;stroke-width:1;" x1="389.1566" x2="399.1166" y1="528.498" y2="527.6044"/><line style="stroke:#181818;stroke-width:1;" x1="389.1566" x2="392.8034" y1="528.498" y2="537.8094"/><line style="stroke:#181818;stroke-width:1;" x1="389.1566" x2="395.96" y1="528.498" y2="532.7069"/><ellipse cx="384.0541" cy="525.3414" fill="none" rx="4" ry="4" style="stroke:#181818;stroke-width:1;"/><text fill="#000000" font-family="sans-serif" font-size="13" lengthAdjust="spacing" textLength="56.4941" x="276.15" y="455.9238">&#1074;&#1083;&#1072;&#1076;&#1077;&#1077;&#1090;</text></g><!--link protocols to adapters--><g class="link" data-entity-1="protocols" data-entity-2="adapters" data-source-line="87" data-uid="lnk11" id="link_protocols_adapters"><path codeLine="87" d="M510.1619,163.1117 C474.6119,193.7717 450.1006,214.9108 413.1606,246.7708" fill="none" id="protocols-adapters" style="stroke:#181818;stroke-width:1;"/><line style="stroke:#181818;stroke-width:1;" x1="510.5785" x2="515.8033" y1="157.4702" y2="163.5284"/><line style="stroke:#181818;stroke-width:1;" x1="508.3067" x2="513.5315" y1="159.4295" y2="165.4877"/><line style="stroke:#181818;stroke-width:1;" x1="510.1619" x2="516.22" y1="163.1117" y2="157.8869"/><line style="stroke:#181818;stroke-width:1;" x1="405.588" x2="403.4487" y1="253.3019" y2="263.0704"/><line style="stroke:#181818;stroke-width:1;" x1="405.588" x2="395.6113" y1="253.3019" y2="253.9833"/><line style="stroke:#181818;stroke-width:1;" x1="405.588" x2="399.53" y1="253.3019" y2="258.5269"/><ellipse cx="410.1316" cy="249.3832" fill="none" rx="4" ry="4" style="stroke:#181818;stroke-width:1;"/><text fill="#000000" font-family="sans-serif" font-size="13" lengthAdjust="spacing" textLength="78.1968" x="477.15" y="200.5438">&#1080;&#1089;&#1087;&#1086;&#1083;&#1100;&#1079;&#1091;&#1077;&#1090;</text></g><!--link protocols to device_types--><g class="link" data-entity-1="protocols" data-entity-2="device_types" data-source-line="88" data-uid="lnk12" id="link_protocols_device_types"><path codeLine="88" d="M581.15,165.8869 C581.15,189.0069 581.15,190.3769 581.15,216.0969" fill="none" id="protocols-device_types" style="stroke:#181818;stroke-width:1;"/><line style="stroke:#181818;stroke-width:1;" x1="577.15" x2="585.15" y1="161.8869" y2="161.8869"/><line style="stroke:#181818;stroke-width:1;" x1="577.15" x2="585.15" y1="164.8869" y2="164.8869"/><line style="stroke:#181818;stroke-width:1;" x1="581.15" x2="581.15" y1="165.8869" y2="157.8869"/><line style="stroke:#181818;stroke-width:1;" x1="581.15" x2="587.15" y1="226.0969" y2="234.0969"/><line style="stroke:#181818;stroke-width:1;" x1="581.15" x2="575.15" y1="226.0969" y2="234.0969"/><line style="stroke:#181818;stroke-width:1;" x1="581.15" x2="581.15" y1="226.0969" y2="234.0969"/><ellipse cx="581.15" cy="220.0969" fill="none" rx="4" ry="4" style="stroke:#181818;stroke-width:1;"/><text fill="#000000" font-family="sans-serif" font-size="13" lengthAdjust="spacing" textLength="78.1968" x="582.15" y="200.5438">&#1080;&#1089;&#1087;&#1086;&#1083;&#1100;&#1079;&#1091;&#1077;&#1090;</text></g><!--link protocols to devices--><g class="link" data-entity-1="protocols" data-entity-2="devices" data-source-line="89" data-uid="lnk13" id="link_protocols_devices"><path codeLine="89" d="M670.6591,163.0822 C694.8191,183.9922 712.12,204.7569 725.15,234.4769 C756.99,307.0869 759.51,341.4069 725.15,412.8569 C698.97,467.3069 662.7199,500.7446 615.4699,531.3346" fill="none" id="protocols-devices" style="stroke:#181818;stroke-width:1;"/><line style="stroke:#181818;stroke-width:1;" x1="665.0169" x2="670.2522" y1="163.4891" y2="157.44"/><line style="stroke:#181818;stroke-width:1;" x1="667.2853" x2="672.5206" y1="165.4523" y2="159.4033"/><line style="stroke:#181818;stroke-width:1;" x1="670.6591" x2="664.61" y1="163.0822" y2="157.8469"/><line style="stroke:#181818;stroke-width:1;" x1="607.0755" x2="603.6207" y1="536.7692" y2="546.1535"/><line style="stroke:#181818;stroke-width:1;" x1="607.0755" x2="597.0993" y1="536.7692" y2="536.0803"/><line style="stroke:#181818;stroke-width:1;" x1="607.0755" x2="600.36" y1="536.7692" y2="541.1169"/><ellipse cx="612.1121" cy="533.5085" fill="none" rx="4" ry="4" style="stroke:#181818;stroke-width:1;"/><text fill="#000000" font-family="sans-serif" font-size="13" lengthAdjust="spacing" textLength="78.1968" x="751.15" y="328.2338">&#1080;&#1089;&#1087;&#1086;&#1083;&#1100;&#1079;&#1091;&#1077;&#1090;</text></g><!--link statuses to devices--><g class="link" data-entity-1="statuses" data-entity-2="devices" data-source-line="90" data-uid="lnk14" id="link_statuses_devices"><path codeLine="90" d="M942.3372,384.6863 C898.7572,409.9263 852.85,435.4569 804.15,459.8569 C737.35,493.3169 676.9324,520.1351 616.8724,545.4951" fill="none" id="statuses-devices" style="stroke:#181818;stroke-width:1;"/><line style="stroke:#181818;stroke-width:1;" x1="943.7939" x2="947.8033" y1="379.2202" y2="386.143"/><line style="stroke:#181818;stroke-width:1;" x1="941.1979" x2="945.2073" y1="380.7237" y2="387.6465"/><line style="stroke:#181818;stroke-width:1;" x1="942.3372" x2="949.26" y1="384.6863" y2="380.6769"/><line style="stroke:#181818;stroke-width:1;" x1="607.6599" x2="602.6239" y1="549.385" y2="558.0243"/><line style="stroke:#181818;stroke-width:1;" x1="607.6599" x2="597.9561" y1="549.385" y2="546.9694"/><line style="stroke:#181818;stroke-width:1;" x1="607.6599" x2="600.29" y1="549.385" y2="552.4969"/><ellipse cx="613.1874" cy="547.051" fill="none" rx="4" ry="4" style="stroke:#181818;stroke-width:1;"/><text fill="#000000" font-family="sans-serif" font-size="13" lengthAdjust="spacing" textLength="91.0571" x="831.15" y="455.9238">&#1080;&#1084;&#1077;&#1077;&#1090; &#1089;&#1090;&#1072;&#1090;&#1091;&#1089;</text></g><!--link adapters to devices--><g class="link" data-entity-1="adapters" data-entity-2="devices" data-source-line="91" data-uid="lnk15" id="link_adapters_devices"><path codeLine="91" d="M370.4688,395.3109 C389.7988,425.4509 399.3387,440.3177 421.1887,474.3677" fill="none" id="adapters-devices" style="stroke:#181818;stroke-width:1;"/><line style="stroke:#181818;stroke-width:1;" x1="364.9424" x2="371.6765" y1="394.1033" y2="389.7845"/><line style="stroke:#181818;stroke-width:1;" x1="366.5619" x2="373.296" y1="396.6286" y2="392.3098"/><line style="stroke:#181818;stroke-width:1;" x1="370.4688" x2="366.15" y1="395.3109" y2="388.5769"/><line style="stroke:#181818;stroke-width:1;" x1="426.5894" x2="435.9597" y1="482.7839" y2="486.2765"/><line style="stroke:#181818;stroke-width:1;" x1="426.5894" x2="425.8603" y1="482.7839" y2="492.7573"/><line style="stroke:#181818;stroke-width:1;" x1="426.5894" x2="430.91" y1="482.7839" y2="489.5169"/><ellipse cx="423.349" cy="477.7342" fill="none" rx="4" ry="4" style="stroke:#181818;stroke-width:1;"/><text fill="#000000" font-family="sans-serif" font-size="13" lengthAdjust="spacing" textLength="90.4795" x="413.15" y="455.9238">&#1086;&#1073;&#1089;&#1083;&#1091;&#1078;&#1080;&#1074;&#1072;&#1077;&#1090;</text></g><!--link device_types to devices--><g class="link" data-entity-1="device_types" data-entity-2="devices" data-source-line="92" data-uid="lnk16" id="link_device_types_devices"><path codeLine="92" d="M551.5067,420.9929 C543.9967,445.3929 543.4235,447.2529 535.6635,472.4729" fill="none" id="device_types-devices" style="stroke:#181818;stroke-width:1;"/><line style="stroke:#181818;stroke-width:1;" x1="548.8603" x2="556.5063" y1="415.9932" y2="418.3466"/><line style="stroke:#181818;stroke-width:1;" x1="547.9778" x2="555.6238" y1="418.8605" y2="421.2138"/><line style="stroke:#181818;stroke-width:1;" x1="551.5067" x2="553.86" y1="420.9929" y2="413.3469"/><line style="stroke:#181818;stroke-width:1;" x1="532.7227" x2="536.1047" y1="482.0306" y2="491.4414"/><line style="stroke:#181818;stroke-width:1;" x1="532.7227" x2="524.6353" y1="482.0306" y2="487.9124"/><line style="stroke:#181818;stroke-width:1;" x1="532.7227" x2="530.37" y1="482.0306" y2="489.6769"/><ellipse cx="534.4872" cy="476.296" fill="none" rx="4" ry="4" style="stroke:#181818;stroke-width:1;"/><text fill="#000000" font-family="sans-serif" font-size="13" lengthAdjust="spacing" textLength="79.8472" x="546.15" y="455.9238">&#1090;&#1080;&#1087;&#1080;&#1079;&#1080;&#1088;&#1091;&#1077;&#1090;</text></g><!--link devices to telemetry--><g class="link" data-entity-1="devices" data-entity-2="telemetry" data-source-line="93" data-uid="lnk17" id="link_devices_telemetry"><path codeLine="93" d="M498.15,708.9769 C498.15,745.7369 498.15,759.9169 498.15,792.3069" fill="none" id="devices-telemetry" style="stroke:#181818;stroke-width:1;"/><line style="stroke:#181818;stroke-width:1;" x1="494.15" x2="502.15" y1="704.9769" y2="704.9769"/><line style="stroke:#181818;stroke-width:1;" x1="494.15" x2="502.15" y1="707.9769" y2="707.9769"/><line style="stroke:#181818;stroke-width:1;" x1="498.15" x2="498.15" y1="708.9769" y2="700.9769"/><line style="stroke:#181818;stroke-width:1;" x1="498.15" x2="504.15" y1="802.3069" y2="810.3069"/><line style="stroke:#181818;stroke-width:1;" x1="498.15" x2="492.15" y1="802.3069" y2="810.3069"/><line style="stroke:#181818;stroke-width:1;" x1="498.15" x2="498.15" y1="802.3069" y2="810.3069"/><ellipse cx="498.15" cy="796.3069" fill="none" rx="4" ry="4" style="stroke:#181818;stroke-width:1;"/><text fill="#000000" font-family="sans-serif" font-size="13" lengthAdjust="spacing" textLength="65.2729" x="499.15" y="743.8938">&#1087;&#1077;&#1088;&#1077;&#1076;&#1072;&#1077;&#1090;</text></g><!--link devices to commands--><g class="link" data-entity-1="devices" data-entity-2="commands" data-source-line="94" data-uid="lnk18" id="link_devices_commands"><path codeLine="94" d="M390.2005,703.451 C363.9505,729.491 354.2445,739.1158 328.2645,764.9058" fill="none" id="devices-commands" style="stroke:#181818;stroke-width:1;"/><line style="stroke:#181818;stroke-width:1;" x1="390.2232" x2="395.8573" y1="697.7942" y2="703.4737"/><line style="stroke:#181818;stroke-width:1;" x1="388.0934" x2="393.7275" y1="699.9069" y2="705.5865"/><line style="stroke:#181818;stroke-width:1;" x1="390.2005" x2="395.88" y1="703.451" y2="697.8169"/><line style="stroke:#181818;stroke-width:1;" x1="321.1676" x2="319.717" y1="771.9508" y2="781.8451"/><line style="stroke:#181818;stroke-width:1;" x1="321.1676" x2="311.263" y1="771.9508" y2="773.3287"/><line style="stroke:#181818;stroke-width:1;" x1="321.1676" x2="315.49" y1="771.9508" y2="777.5869"/><ellipse cx="325.4258" cy="767.7238" fill="none" rx="4" ry="4" style="stroke:#181818;stroke-width:1;"/><text fill="#000000" font-family="sans-serif" font-size="13" lengthAdjust="spacing" textLength="75.4927" x="359.15" y="743.8938">&#1087;&#1088;&#1080;&#1085;&#1080;&#1084;&#1072;&#1077;&#1090;</text></g><!--link users to commands--><g class="link" data-entity-1="users" data-entity-2="commands" data-source-line="95" data-uid="lnk19" id="link_users_commands"><path codeLine="95" d="M116.4665,396.6014 C136.8765,492.4314 170.0507,648.2817 193.8707,760.1317" fill="none" id="users-commands" style="stroke:#181818;stroke-width:1;"/><line style="stroke:#181818;stroke-width:1;" x1="111.721" x2="119.5455" y1="393.5224" y2="391.8559"/><line style="stroke:#181818;stroke-width:1;" x1="112.3459" x2="120.1704" y1="396.4566" y2="394.7901"/><line style="stroke:#181818;stroke-width:1;" x1="116.4665" x2="114.8" y1="396.6014" y2="388.7769"/><line style="stroke:#181818;stroke-width:1;" x1="195.9537" x2="203.4884" y1="769.9123" y2="776.4871"/><line style="stroke:#181818;stroke-width:1;" x1="195.9537" x2="191.7516" y1="769.9123" y2="778.9866"/><line style="stroke:#181818;stroke-width:1;" x1="195.9537" x2="197.62" y1="769.9123" y2="777.7369"/><ellipse cx="194.7039" cy="764.0439" fill="none" rx="4" ry="4" style="stroke:#181818;stroke-width:1;"/><text fill="#000000" font-family="sans-serif" font-size="13" lengthAdjust="spacing" textLength="79.606" x="182.15" y="599.9038">&#1086;&#1090;&#1087;&#1088;&#1072;&#1074;&#1083;&#1103;&#1077;&#1090;</text></g><!--SRC=[hLRDJjj04BxdALQvD5Ju1H3YW9fMgAtKKhZqOcti1RQrlPPtdJQ2IlmSUg0IFVU2A2-Gfj062E4LTj-ei_RQU1C71Qc9R7btPhpVVFDdGKL0K7lTaHToAFlojzg7-mZ-VUGWUGuFj-fONY6GZ-K8jTI1lCjq1dAilifRiBgMGos-KISeautL8UXUmtK3rm21M1t0NbyTgYEmXxs5HeD4WeeUQifJhQY-oRzQe9NafLwZLif9mXUQ27EKFQBT1a9FisUN-cW9RMwkFKFBoszUhgo0n77WHa9C0n1rSUBju0HsOipv9vRuxWxcEvOamY6nDho4O45y5mlO5ZGaNE0mRdofWFqEZlR1Im2fzb4B-pWM9SfYPO2QvKoiK-V72HFCOu5byJoty0dt4XeBoY8DZdmMym7-2G6wGvftO1zY8w-oM03HgEMJBlM8AtenCHvKTumNbQt_umbFuvWb6hR7mX17FWUL3vn57KiO4f5Ghoe3tNGBUo9DI6AT5ZAV18-DvFaK8-E24OkC2HvcKJ2LbSRRkYGeGrhFh14_oA708kLragbG02wA0pTAmyu4RUK17eksw7Q5wJdeExilQ7LSarzbTkLG2qwBbI6rneyggHu4re9SMmMKkv0LjAjLEum514SMr5Ex9m7SLk6wGLKk3QnQwcS3G_dFST3xjHUhxVOYMdq5j_Nskur5zFhjniOiv2RRkHkdMM-gG_z3zrteERUwyw1MKJCvyBA2SjncEHDsJGwRj9cLliKRTP9EjDLUmB1VBTqiblEK8LI5zz7LwudjXF2OHPmK3DcD3CO2N2Fel3hJXZ1kMe84H3UANav7kJHybElSjGxTff6OcvCIsGJAl3EvKvLczhiuIBN0Psad8Dg79qYUoO4wWH4tREIZR6_FSTXksMAMmC41kDU785zg1vkD-vmqkkLqqSf3FOUBmQcEPfXOxVonPWzOb5LSPw0ZfDMieTzibF1hRCRo5nnp0w__0_Omc_9ZBFZJPl1sc6rm0Qrgly1MA1Zz-vJG1ztfiGtmBkmZIktAH6fctpB3x0jdLAXRmREKTOCfFepWIoXJ_mS0]--></g></svg>